<?xml version="1.0" encoding="UTF-8" standalone="no"?>
<!-- Created with Inkscape (http://www.inkscape.org/) -->

<svg
   width="210mm"
   height="297mm"
   viewBox="0 0 210 297"
   version="1.1"
   id="svg5"
   xml:space="preserve"
   inkscape:version="1.2.2 (b0a8486541, 2022-12-01)"
   sodipodi:docname="serial.svg"
   xmlns:inkscape="http://www.inkscape.org/namespaces/inkscape"
   xmlns:sodipodi="http://sodipodi.sourceforge.net/DTD/sodipodi-0.dtd"
   xmlns="http://www.w3.org/2000/svg"
   xmlns:svg="http://www.w3.org/2000/svg"><sodipodi:namedview
     id="namedview7"
     pagecolor="#ffffff"
     bordercolor="#000000"
     borderopacity="0.25"
     inkscape:showpageshadow="2"
     inkscape:pageopacity="0.0"
     inkscape:pagecheckerboard="0"
     inkscape:deskcolor="#d1d1d1"
     inkscape:document-units="mm"
     showgrid="false"
     inkscape:zoom="9.7209876"
     inkscape:cx="23.248667"
     inkscape:cy="1103.3858"
     inkscape:window-width="1920"
     inkscape:window-height="1007"
     inkscape:window-x="0"
     inkscape:window-y="0"
     inkscape:window-maximized="1"
     inkscape:current-layer="layer1" /><defs
     id="defs2" /><g
     inkscape:label="Capa 1"
     inkscape:groupmode="layer"
     id="layer1"><path
       style="fill:#000000;stroke-width:0.0508"
       d="m 4.5216851,296.42483 c -0.05588,-0.0307 -0.219851,-0.18429 -0.364379,-0.34136 l -0.262779,-0.28557 -0.155494,0.16733 c -0.210056,0.22605 -0.33344,0.16544 -0.380158,-0.18674 -0.01836,-0.13843 -0.07285,-0.29585 -0.12109,-0.34981 -0.115992,-0.12976 -0.786051,-0.41818 -0.971519,-0.41818 -0.08048,0 -0.199551,-0.0431 -0.264605,-0.0958 -0.101403,-0.0821 -0.108567,-0.10748 -0.05021,-0.1778 0.118097,-0.1423 0.4653,-0.10274 0.89707,0.1022 0.37122,0.17621 0.396995,0.18129 0.592129,0.11689 0.185948,-0.0614 0.21023,-0.0588 0.274223,0.0287 0.03862,0.0528 0.07021,0.15831 0.07021,0.23444 0,0.10257 0.05591,0.18203 0.2159,0.30679 0.118745,0.0926 0.280493,0.23594 0.359441,0.31855 0.174125,0.18219 0.251777,0.11114 0.1765,-0.16149 -0.02712,-0.0982 -0.03558,-0.25176 -0.0188,-0.34121 0.03648,-0.19444 0.236997,-0.39831 0.367323,-0.37346 0.103569,0.0197 0.153476,0.21681 0.07894,0.31168 -0.09923,0.1263 -0.110094,0.34491 -0.03489,0.70241 0.04275,0.20325 0.06636,0.39918 0.05246,0.43541 -0.03062,0.0798 -0.319673,0.0842 -0.460267,0.007 z m -0.5842,-2.45959 c -0.728926,-0.37511 -1.013583,-0.46313 -1.273453,-0.39377 -0.379448,0.10128 -0.739648,-0.0748 -0.547022,-0.26747 0.121933,-0.12193 0.478101,-0.14252 0.872363,-0.0504 0.191008,0.0446 0.368173,0.0682 0.3937,0.0524 0.02553,-0.0158 0.04641,-0.097 0.04641,-0.1804 0,-0.0922 0.04761,-0.19932 0.121474,-0.27318 0.119524,-0.11953 0.126485,-0.12031 0.433399,-0.0487 0.59072,0.13781 0.865328,0.34812 0.972057,0.74448 0.09813,0.36443 -0.07194,0.70472 -0.34781,0.69594 -0.07575,-0.002 -0.37775,-0.12791 -0.67112,-0.27888 z m 0.650506,-0.38395 c 0.01111,-0.0959 -0.02294,-0.16404 -0.120179,-0.24053 -0.146396,-0.11516 -0.468569,-0.22263 -0.53826,-0.17956 -0.09431,0.0583 -0.03659,0.28859 0.108739,0.43392 0.123865,0.12387 0.18661,0.14871 0.3429,0.13579 0.163975,-0.0136 0.193508,-0.0349 0.2068,-0.14962 z m -1.666506,-0.98861 c -0.09779,-0.0424 -0.28067,-0.16188 -0.4064,-0.26556 -0.12573,-0.10368 -0.316505,-0.25382 -0.423944,-0.33364 -0.174583,-0.12971 -0.191785,-0.16202 -0.161856,-0.30396 0.01842,-0.0874 0.04405,-0.39861 0.05696,-0.69169 0.01291,-0.29308 0.04733,-0.62146 0.07649,-0.72974 0.06409,-0.23802 0.252991,-0.43929 0.411942,-0.43892 0.06414,1.5e-4 0.379499,0.15045 0.700809,0.33401 0.651302,0.37207 0.791887,0.41799 0.9398,0.30698 0.101016,-0.0758 0.100884,-0.0776 -0.0229,-0.31388 -0.121112,-0.23116 -0.121885,-0.23954 -0.02839,-0.3079 0.209235,-0.153 0.381516,-0.0689 0.553166,0.2701 0.132274,0.26121 0.105109,0.38921 -0.12713,0.59903 -0.202059,0.18255 -0.220554,0.18852 -0.523705,0.16922 -0.260251,-0.0166 -0.38689,-0.0612 -0.73699,-0.25952 -0.463698,-0.26271 -0.612649,-0.29649 -0.612649,-0.13894 0,0.0553 -0.03605,0.19068 -0.08012,0.30082 -0.06136,0.15335 -0.06698,0.22479 -0.024,0.3051 0.04456,0.0833 0.03438,0.14748 -0.04939,0.31168 -0.124185,0.24342 -0.10407,0.33793 0.114179,0.53647 0.419737,0.38185 0.539914,0.40242 0.809997,0.13869 0.240188,-0.23453 0.388428,-0.23767 0.742212,-0.0157 0.206498,0.12956 0.28212,0.15449 0.328369,0.10824 0.04625,-0.0462 0.04588,-0.095 -0.0016,-0.21178 -0.03392,-0.0834 -0.08951,-0.22019 -0.123537,-0.30391 -0.05216,-0.12834 -0.04897,-0.16511 0.02036,-0.23445 0.07577,-0.0758 0.09442,-0.075 0.237515,0.01 0.189306,0.11183 0.28645,0.32657 0.28653,0.6334 1.52e-4,0.51798 -0.355617,0.663 -0.84929,0.34621 l -0.248646,-0.15955 -0.162202,0.15346 c -0.295607,0.27967 -0.409552,0.31018 -0.695601,0.18623 z m 4.0386,-2.7688 c -0.08382,-0.0259 -0.36957,-0.0597 -0.635,-0.0751 -0.26543,-0.0154 -0.64262,-0.0608 -0.8382,-0.10089 -0.19558,-0.0401 -0.64135,-0.10698 -0.9906,-0.14861 -0.34925,-0.0416 -0.78359,-0.10962 -0.9652,-0.1511 -0.18161,-0.0415 -0.62738,-0.0976 -0.9906,-0.12474 -0.467793,-0.0349 -0.771519,-0.0868 -1.0414,-0.17783 -0.20955,-0.0707 -0.427348,-0.1291 -0.483997,-0.12983 -0.13207503,-0.002 -0.32880303,-0.13881 -0.32880303,-0.22917 0,-0.21269 0.41614103,-0.30573 0.70327503,-0.15725 0.240308,0.12427 0.779178,0.2415 1.19866,0.26076 0.381508,0.0175 0.854913,0.0917 1.603265,0.25127 0.18161,0.0387 0.47358,0.0843 0.648823,0.10138 0.175242,0.017 0.415272,0.0676 0.5334,0.11243 0.188867,0.0716 1.278944,0.17331 1.805239,0.16842 0.378809,-0.004 0.504541,0.25066 0.18917,0.38243 -0.197926,0.0827 -0.19794,0.0827 -0.408032,0.0178 z m -3.498442,-1.25405 c -0.01355,-0.0219 -0.04067,-0.18156 -0.06026,-0.35474 -0.01959,-0.17318 -0.06314,-0.33771 -0.09676,-0.36562 -0.03363,-0.0279 -0.328233,-0.0812 -0.654681,-0.11844 -0.326447,-0.0372 -0.618963,-0.0931 -0.650036,-0.1242 -0.09329,-0.0933 -0.0071,-0.30303 0.14658,-0.35651 0.125107,-0.0435 0.797322,0.0314 1.016293,0.11324 0.03651,0.0136 0.09477,-0.0511 0.137108,-0.15246 0.136158,-0.32587 0.444084,-0.18427 0.590336,0.27147 0.07469,0.23275 0.186771,0.36513 0.309143,0.36513 0.09868,0 0.111499,-0.0665 0.09482,-0.49169 -0.01056,-0.26919 0.126172,-0.42271 0.37648,-0.42271 0.222584,0 0.253758,0.09 0.208999,0.60309 -0.06293,0.72149 -0.192454,0.88488 -0.659733,0.83221 -0.18649,-0.021 -0.2234,-0.008 -0.299542,0.10856 -0.06556,0.10006 -0.129389,0.13254 -0.260474,0.13254 -0.0955,0 -0.184718,-0.0179 -0.198269,-0.0399 z m 0.128677,-1.95202 c -0.315441,-0.10579 -0.326761,-0.10612 -0.575959,-0.0165 -0.213229,0.0767 -0.286088,0.0819 -0.452106,0.0321 -0.216913,-0.065 -0.30117,-0.17578 -0.30117,-0.39602 0,-0.17057 0.168462,-0.51249 0.314138,-0.63759 0.118225,-0.10153 0.383548,-0.11603 0.569867,-0.0311 0.109663,0.05 0.159787,0.0366 0.371152,-0.099 0.378156,-0.24266 0.583989,-0.2534 0.980043,-0.0511 l 0.3302,0.16862 -0.01018,0.3048 c -0.01703,0.50973 -0.05503,0.62978 -0.233874,0.73883 -0.213834,0.13039 -0.579017,0.12563 -0.992109,-0.0129 z m 0.653069,-0.42401 c 0.03913,-0.10293 0.02569,-0.17141 -0.06476,-0.32981 -0.13097,-0.22937 -0.252925,-0.25506 -0.428373,-0.0902 -0.235151,0.22092 -0.07679,0.54995 0.264684,0.54995 0.145318,0 0.188363,-0.0245 0.228446,-0.1299 z m -1.276448,0.009 c 0.0844,-0.1017 0.01332,-0.23504 -0.125304,-0.23504 -0.12485,0 -0.227739,0.13174 -0.188454,0.2413 0.03053,0.0851 0.241399,0.0809 0.313758,-0.006 z m 3.307344,-0.95276 c -0.20955,-0.0537 -0.59817,-0.13106 -0.8636,-0.172 -0.26543,-0.0409 -0.606608,-0.0968 -0.758174,-0.1241 -0.296272,-0.0534 -2.724691,-0.18217 -3.102626,-0.16454 -0.368127,0.0172 -0.4572,-0.0203 -0.4572,-0.19242 0,-0.22861 0.131637,-0.27201 0.678969,-0.22385 0.255217,0.0224 0.909801,0.0425 1.454631,0.0446 0.610898,0.002 1.107431,0.0292 1.2954,0.0701 0.16764,0.0365 0.48768,0.0859 0.7112,0.1098 0.22352,0.0239 0.55499,0.0783 0.7366,0.12083 0.18161,0.0425 0.473075,0.0781 0.6477,0.0791 0.342406,0.002 0.5207,0.10566 0.5207,0.30295 0,0.26678 -0.241997,0.30868 -0.8636,0.14951 z M 3.1398371,283.997 c -0.03612,-0.023 -0.06724,-0.19378 -0.0762,-0.41832 l -0.01515,-0.37952 -0.3556,-0.003 c -0.47524,-0.003 -0.4826,-0.006 -0.4826,-0.13759 0,-0.14965 0.147149,-0.23702 0.494367,-0.29354 0.154823,-0.0252 0.290044,-0.0544 0.300492,-0.0648 0.01045,-0.0104 0.02647,-0.16628 0.0356,-0.3463 0.01739,-0.34282 0.122792,-0.57621 0.283216,-0.62712 0.124011,-0.0394 0.451736,0.0855 0.857843,0.32672 0.190185,0.11299 0.370591,0.20543 0.400902,0.20543 0.08495,0 0.125445,0.15695 0.06064,0.23504 -0.08869,0.10687 -0.253066,0.0844 -0.628518,-0.0858 -0.401026,-0.18183 -0.496906,-0.16842 -0.474283,0.0663 0.01423,0.14768 0.05351,0.18519 0.365811,0.34931 0.396623,0.20844 0.489867,0.31898 0.370096,0.43875 -0.07078,0.0708 -0.103375,0.0678 -0.332031,-0.0306 -0.347504,-0.1495 -0.394581,-0.11892 -0.426353,0.27688 -0.03365,0.41919 -0.183022,0.61181 -0.378226,0.48773 z"
       id="path302" /></g></svg>
